<svg width="146" height="54" viewBox="0 0 146 54" fill="none" xmlns="http://www.w3.org/2000/svg">
<path d="M45.412 14.728V19.66H38.716V40H32.56V19.66H25.864V14.728H45.412ZM54.6575 23.26C55.3775 22.156 56.2775 21.292 57.3575 20.668C58.4375 20.02 59.6375 19.696 60.9575 19.696V26.212H59.2655C57.7295 26.212 56.5775 26.548 55.8095 27.22C55.0415 27.868 54.6575 29.02 54.6575 30.676V40H48.5015V19.912H54.6575V23.26ZM62.676 29.92C62.676 27.856 63.06 26.044 63.828 24.484C64.62 22.924 65.688 21.724 67.032 20.884C68.376 20.044 69.876 19.624 71.532 19.624C72.948 19.624 74.184 19.912 75.24 20.488C76.32 21.064 77.148 21.82 77.724 22.756V19.912H83.88V40H77.724V37.156C77.124 38.092 76.284 38.848 75.204 39.424C74.148 40 72.912 40.288 71.496 40.288C69.864 40.288 68.376 39.868 67.032 39.028C65.688 38.164 64.62 36.952 63.828 35.392C63.06 33.808 62.676 31.984 62.676 29.92ZM77.724 29.956C77.724 28.42 77.292 27.208 76.428 26.32C75.588 25.432 74.556 24.988 73.332 24.988C72.108 24.988 71.064 25.432 70.2 26.32C69.36 27.184 68.94 28.384 68.94 29.92C68.94 31.456 69.36 32.68 70.2 33.592C71.064 34.48 72.108 34.924 73.332 34.924C74.556 34.924 75.588 34.48 76.428 33.592C77.292 32.704 77.724 31.492 77.724 29.956ZM87.1096 29.956C87.1096 27.868 87.5296 26.044 88.3696 24.484C89.2336 22.924 90.4216 21.724 91.9336 20.884C93.4696 20.044 95.2216 19.624 97.1896 19.624C99.7096 19.624 101.81 20.284 103.49 21.604C105.194 22.924 106.31 24.784 106.838 27.184H100.286C99.7336 25.648 98.6656 24.88 97.0816 24.88C95.9536 24.88 95.0536 25.324 94.3816 26.212C93.7096 27.076 93.3736 28.324 93.3736 29.956C93.3736 31.588 93.7096 32.848 94.3816 33.736C95.0536 34.6 95.9536 35.032 97.0816 35.032C98.6656 35.032 99.7336 34.264 100.286 32.728H106.838C106.31 35.08 105.194 36.928 103.49 38.272C101.786 39.616 99.6856 40.288 97.1896 40.288C95.2216 40.288 93.4696 39.868 91.9336 39.028C90.4216 38.188 89.2336 36.988 88.3696 35.428C87.5296 33.868 87.1096 32.044 87.1096 29.956ZM122.406 40L116.286 31.576V40H110.13V13.36H116.286V28.084L122.37 19.912H129.966L121.614 29.992L130.038 40H122.406ZM138.54 23.26C139.26 22.156 140.16 21.292 141.24 20.668C142.32 20.02 143.52 19.696 144.84 19.696V26.212H143.148C141.612 26.212 140.46 26.548 139.692 27.22C138.924 27.868 138.54 29.02 138.54 30.676V40H132.384V19.912H138.54V23.26Z" fill="#C5C5C5"/>
<line x1="2.5" y1="17.5" x2="16.5" y2="17.5" stroke="#00D8FF" stroke-width="5" stroke-linecap="round"/>
<line x1="2.5" y1="17.5" x2="16.5" y2="17.5" stroke="#00D8FF" stroke-width="5" stroke-linecap="round"/>
<line x1="2.5" y1="17.5" x2="16.5" y2="17.5" stroke="#006F83" stroke-width="5" stroke-linecap="round"/>
<line x1="2.5" y1="27.5" x2="16.5" y2="27.5" stroke="#00D8FF" stroke-width="5" stroke-linecap="round"/>
<line x1="2.5" y1="27.5" x2="16.5" y2="27.5" stroke="#006F83" stroke-width="5" stroke-linecap="round"/>
<line x1="2.5" y1="27.5" x2="16.5" y2="27.5" stroke="#006F83" stroke-width="5" stroke-linecap="round"/>
<line x1="2.5" y1="37.5" x2="16.5" y2="37.5" stroke="#00D8FF" stroke-width="5" stroke-linecap="round"/>
<line x1="2.5" y1="37.5" x2="16.5" y2="37.5" stroke="#00D8FF" stroke-width="5" stroke-linecap="round"/>
<line x1="2.5" y1="37.5" x2="16.5" y2="37.5" stroke="#006F83" stroke-width="5" stroke-linecap="round"/>
</svg>
