<svg width="795" height="345" viewBox="0 0 795 345" fill="none" xmlns="http://www.w3.org/2000/svg">
<g clip-path="url(#clip0_71:91)">
<path d="M717.113 142.323H250.683C248.702 142.323 246.803 143.11 245.403 144.511C244.002 145.912 243.215 147.812 243.215 149.793C243.215 151.774 244.002 153.674 245.403 155.075C246.803 156.476 248.702 157.263 250.683 157.263H263.895V335.973C263.895 337.954 264.681 339.855 266.082 341.255C267.482 342.656 269.382 343.443 271.362 343.443C273.343 343.443 275.242 342.656 276.642 341.255C278.043 339.855 278.83 337.954 278.83 335.973L278.943 157.263H653.301L687.818 335.973C687.818 337.954 688.605 339.855 690.005 341.255C691.406 342.656 693.305 343.443 695.285 343.443C697.266 343.443 699.165 342.656 700.566 341.255C701.966 339.855 702.753 337.954 702.753 335.973L704.926 157.263H717.113C719.094 157.263 720.993 156.476 722.394 155.075C723.794 153.674 724.581 151.774 724.581 149.793C724.581 147.812 723.794 145.912 722.394 144.511C720.993 143.11 719.094 142.323 717.113 142.323Z" fill="#CCCCCC"/>
<path d="M331.532 109.036V140.671H252.305C250.229 140.743 248.159 140.405 246.213 139.677C244.267 138.949 242.483 137.845 240.964 136.427C239.445 135.009 238.219 133.306 237.358 131.415C236.497 129.524 236.016 127.481 235.944 125.404C235.872 123.327 236.209 121.256 236.937 119.309C237.665 117.362 238.769 115.578 240.186 114.058C241.603 112.538 243.306 111.313 245.196 110.451C247.087 109.589 249.129 109.109 251.205 109.036C251.572 109.024 251.938 109.024 252.305 109.036L331.532 109.036Z" fill="#F2F2F2"/>
<path d="M333.478 140.427C333.478 140.75 333.35 141.059 333.122 141.288C332.894 141.516 332.585 141.644 332.262 141.644H250.894C246.477 141.641 242.242 139.883 239.119 136.758C235.997 133.632 234.243 129.394 234.243 124.975C234.243 120.556 235.997 116.318 239.119 113.193C242.242 110.067 246.477 108.309 250.894 108.306H332.262C332.422 108.306 332.581 108.337 332.729 108.398C332.876 108.459 333.011 108.549 333.124 108.662C333.237 108.775 333.327 108.909 333.389 109.057C333.45 109.205 333.482 109.363 333.482 109.523C333.482 109.683 333.45 109.842 333.389 109.989C333.327 110.137 333.237 110.272 333.124 110.385C333.011 110.498 332.876 110.587 332.729 110.648C332.581 110.709 332.422 110.74 332.262 110.74H250.894C247.124 110.746 243.51 112.248 240.846 114.917C238.182 117.586 236.686 121.203 236.686 124.975C236.686 128.747 238.182 132.365 240.846 135.034C243.51 137.703 247.124 139.205 250.894 139.211H332.262C332.585 139.211 332.894 139.339 333.122 139.567C333.35 139.795 333.478 140.105 333.478 140.427Z" fill="#6C63FF"/>
<path d="M331.532 116.337H246.394C246.33 116.337 246.268 116.312 246.222 116.267C246.176 116.222 246.15 116.16 246.15 116.096C246.149 116.031 246.174 115.969 246.219 115.923C246.264 115.877 246.325 115.851 246.39 115.85H331.532C331.597 115.851 331.658 115.877 331.703 115.922C331.748 115.968 331.773 116.029 331.773 116.093C331.773 116.158 331.748 116.219 331.703 116.265C331.658 116.31 331.597 116.336 331.532 116.337Z" fill="#CCCCCC"/>
<path d="M331.532 122.177H246.394C246.33 122.177 246.268 122.152 246.222 122.107C246.176 122.062 246.15 122 246.15 121.936C246.149 121.871 246.174 121.809 246.219 121.763C246.264 121.717 246.325 121.691 246.39 121.69H331.532C331.597 121.691 331.658 121.717 331.703 121.762C331.748 121.808 331.773 121.869 331.773 121.934C331.773 121.998 331.748 122.059 331.703 122.105C331.658 122.15 331.597 122.176 331.532 122.177Z" fill="#CCCCCC"/>
<path d="M331.532 128.017H246.394C246.33 128.018 246.268 127.992 246.222 127.947C246.176 127.902 246.15 127.84 246.15 127.776C246.149 127.712 246.174 127.65 246.219 127.604C246.264 127.558 246.325 127.531 246.39 127.531H331.532C331.597 127.531 331.658 127.557 331.703 127.603C331.748 127.648 331.773 127.71 331.773 127.774C331.773 127.838 331.748 127.899 331.703 127.945C331.658 127.991 331.597 128.017 331.532 128.017Z" fill="#CCCCCC"/>
<path d="M331.532 133.857H246.394C246.33 133.858 246.268 133.832 246.222 133.787C246.176 133.742 246.15 133.681 246.15 133.616C246.149 133.552 246.174 133.49 246.219 133.444C246.264 133.398 246.325 133.371 246.39 133.371H331.532C331.597 133.371 331.658 133.397 331.703 133.443C331.748 133.488 331.773 133.55 331.773 133.614C331.773 133.678 331.748 133.74 331.703 133.785C331.658 133.831 331.597 133.857 331.532 133.857Z" fill="#CCCCCC"/>
<path d="M316.597 75.7081V107.342H237.371C233.177 107.488 229.097 105.962 226.029 103.099C222.961 100.236 221.155 96.2704 221.009 92.0754C220.863 87.8805 222.389 83.7994 225.251 80.7299C228.113 77.6604 232.077 75.854 236.27 75.7081C236.637 75.6953 237.004 75.6953 237.371 75.7081H316.597Z" fill="#F2F2F2"/>
<path d="M318.543 107.099C318.543 107.422 318.415 107.731 318.187 107.959C317.959 108.187 317.65 108.316 317.327 108.316H235.959C231.54 108.316 227.302 106.559 224.177 103.433C221.052 100.307 219.297 96.0677 219.297 91.6468C219.297 87.226 221.052 82.9862 224.177 79.8602C227.302 76.7342 231.54 74.978 235.959 74.978H317.327C317.487 74.978 317.645 75.0095 317.793 75.0706C317.94 75.1318 318.074 75.2214 318.187 75.3344C318.3 75.4474 318.39 75.5815 318.451 75.7291C318.512 75.8767 318.543 76.035 318.543 76.1947C318.543 76.3545 318.512 76.5127 318.451 76.6603C318.39 76.8079 318.3 76.9421 318.187 77.0551C318.074 77.168 317.94 77.2577 317.793 77.3188C317.645 77.3799 317.487 77.4114 317.327 77.4114H235.959C232.185 77.4114 228.566 78.9112 225.897 81.5809C223.228 84.2505 221.729 87.8714 221.729 91.6468C221.729 95.4223 223.228 99.0431 225.897 101.713C228.566 104.382 232.185 105.882 235.959 105.882H317.327C317.65 105.882 317.959 106.011 318.187 106.239C318.415 106.467 318.543 106.776 318.543 107.099Z" fill="#3F3D56"/>
<path d="M316.597 83.0081H231.459C231.395 83.0085 231.333 82.9833 231.287 82.9381C231.241 82.8929 231.215 82.8314 231.215 82.7671C231.214 82.7027 231.239 82.6407 231.284 82.5947C231.329 82.5486 231.39 82.5223 231.455 82.5215H316.597C316.661 82.5221 316.723 82.548 316.768 82.5936C316.813 82.6392 316.838 82.7007 316.838 82.7648C316.838 82.8289 316.813 82.8905 316.768 82.936C316.723 82.9816 316.661 83.0075 316.597 83.0081Z" fill="#CCCCCC"/>
<path d="M316.597 88.8485H231.459C231.395 88.8488 231.333 88.8237 231.287 88.7785C231.241 88.7333 231.215 88.6718 231.215 88.6074C231.214 88.543 231.239 88.481 231.284 88.435C231.329 88.389 231.39 88.3627 231.455 88.3618H316.597C316.661 88.3625 316.723 88.3884 316.768 88.434C316.813 88.4795 316.838 88.541 316.838 88.6052C316.838 88.6693 316.813 88.7308 316.768 88.7764C316.723 88.8219 316.661 88.8479 316.597 88.8485Z" fill="#CCCCCC"/>
<path d="M316.597 94.6886H231.459C231.395 94.6889 231.333 94.6637 231.287 94.6186C231.241 94.5734 231.215 94.5119 231.215 94.4475C231.214 94.3831 231.239 94.3211 231.284 94.2751C231.329 94.2291 231.39 94.2027 231.455 94.2019H316.597C316.661 94.2025 316.723 94.2285 316.768 94.274C316.813 94.3196 316.838 94.3811 316.838 94.4452C316.838 94.5094 316.813 94.5709 316.768 94.6164C316.723 94.662 316.661 94.6879 316.597 94.6886Z" fill="#CCCCCC"/>
<path d="M316.597 100.529H231.459C231.395 100.529 231.333 100.504 231.287 100.459C231.241 100.413 231.215 100.352 231.215 100.288C231.214 100.223 231.239 100.161 231.284 100.115C231.329 100.069 231.39 100.043 231.455 100.042H316.597C316.661 100.043 316.723 100.069 316.768 100.114C316.813 100.16 316.838 100.221 316.838 100.285C316.838 100.349 316.813 100.411 316.768 100.457C316.723 100.502 316.661 100.528 316.597 100.529Z" fill="#CCCCCC"/>
<path d="M408.762 254.263V226.681C408.762 225.461 408.278 224.292 407.416 223.43C406.554 222.568 405.386 222.084 404.167 222.083H299.622C298.403 222.084 297.234 222.568 296.373 223.43C295.511 224.292 295.027 225.461 295.027 226.681V254.263H408.762Z" fill="#CCCCCC"/>
<path d="M408.762 264.606H295.027V300.233H408.762V264.606Z" fill="#CCCCCC"/>
<path d="M295.027 310.576V338.159C295.027 339.378 295.511 340.547 296.373 341.409C297.234 342.271 298.403 342.756 299.622 342.756H404.167C405.386 342.756 406.554 342.271 407.416 341.409C408.278 340.547 408.762 339.378 408.762 338.159V310.576H295.027Z" fill="#CCCCCC"/>
<path d="M351.32 242.77C353.224 242.77 354.767 241.226 354.767 239.322C354.767 237.418 353.224 235.875 351.32 235.875C349.417 235.875 347.874 237.418 347.874 239.322C347.874 241.226 349.417 242.77 351.32 242.77Z" fill="white"/>
<path d="M351.32 288.741C353.224 288.741 354.767 287.197 354.767 285.293C354.767 283.389 353.224 281.845 351.32 281.845C349.417 281.845 347.874 283.389 347.874 285.293C347.874 287.197 349.417 288.741 351.32 288.741Z" fill="white"/>
<path d="M351.505 333.738C353.408 333.738 354.951 332.194 354.951 330.29C354.951 328.386 353.408 326.842 351.505 326.842C349.601 326.842 348.058 328.386 348.058 330.29C348.058 332.194 349.601 333.738 351.505 333.738Z" fill="white"/>
<path d="M395.867 190.634V222.268H316.641C312.449 222.411 308.372 220.884 305.306 218.021C302.24 215.158 300.436 211.195 300.29 207.002C300.144 202.809 301.668 198.729 304.528 195.66C307.387 192.591 311.348 190.783 315.539 190.634C315.906 190.621 316.273 190.621 316.641 190.634H395.867Z" fill="#F2F2F2"/>
<path d="M397.814 222.025C397.813 222.348 397.685 222.657 397.457 222.885C397.229 223.113 396.92 223.242 396.597 223.242H315.23C310.811 223.243 306.574 221.488 303.448 218.364C300.323 215.241 298.565 211.003 298.563 206.583C298.56 202.163 300.312 197.923 303.434 194.795C306.556 191.668 310.791 189.908 315.21 189.904H396.597C396.757 189.904 396.916 189.935 397.064 189.996C397.212 190.057 397.346 190.146 397.459 190.259C397.573 190.372 397.663 190.507 397.724 190.654C397.785 190.802 397.817 190.961 397.817 191.121C397.817 191.281 397.785 191.439 397.724 191.587C397.663 191.735 397.573 191.869 397.459 191.982C397.346 192.095 397.212 192.185 397.064 192.246C396.916 192.307 396.757 192.338 396.597 192.337H315.23C311.459 192.342 307.844 193.844 305.179 196.513C302.515 199.183 301.018 202.801 301.018 206.573C301.018 210.345 302.515 213.963 305.179 216.632C307.844 219.301 311.459 220.803 315.23 220.808H396.597C396.92 220.808 397.229 220.937 397.457 221.165C397.685 221.393 397.813 221.702 397.814 222.025Z" fill="#3F3D56"/>
<path d="M395.868 197.934H310.729C310.665 197.935 310.603 197.909 310.557 197.864C310.512 197.819 310.485 197.757 310.485 197.693C310.484 197.629 310.509 197.567 310.554 197.521C310.599 197.475 310.661 197.448 310.725 197.448H395.868C395.932 197.448 395.993 197.474 396.038 197.52C396.083 197.565 396.108 197.627 396.108 197.691C396.108 197.755 396.083 197.816 396.038 197.862C395.993 197.908 395.932 197.934 395.868 197.934H395.868Z" fill="#CCCCCC"/>
<path d="M395.868 203.775H310.729C310.665 203.775 310.603 203.75 310.557 203.705C310.512 203.659 310.485 203.598 310.485 203.533C310.484 203.469 310.509 203.407 310.554 203.361C310.599 203.315 310.661 203.289 310.725 203.288H395.868C395.932 203.288 395.993 203.314 396.038 203.36C396.083 203.406 396.108 203.467 396.108 203.531C396.108 203.595 396.083 203.657 396.038 203.702C395.993 203.748 395.932 203.774 395.868 203.775H395.868Z" fill="#CCCCCC"/>
<path d="M395.868 209.615H310.729C310.665 209.615 310.603 209.59 310.557 209.545C310.512 209.499 310.485 209.438 310.485 209.374C310.484 209.309 310.509 209.247 310.554 209.201C310.599 209.155 310.661 209.129 310.725 209.128H395.868C395.932 209.129 395.993 209.154 396.038 209.2C396.083 209.246 396.108 209.307 396.108 209.371C396.108 209.435 396.083 209.497 396.038 209.542C395.993 209.588 395.932 209.614 395.868 209.615H395.868Z" fill="#CCCCCC"/>
<path d="M395.868 215.455H310.729C310.665 215.455 310.603 215.43 310.557 215.385C310.512 215.339 310.485 215.278 310.485 215.214C310.484 215.149 310.509 215.087 310.554 215.041C310.599 214.995 310.661 214.969 310.725 214.968H395.868C395.932 214.969 395.993 214.995 396.038 215.04C396.083 215.086 396.108 215.147 396.108 215.211C396.108 215.275 396.083 215.337 396.038 215.383C395.993 215.428 395.932 215.454 395.868 215.455H395.868Z" fill="#CCCCCC"/>
<path d="M302.82 65.155H266.723C266.381 65.1547 266.043 65.2334 265.735 65.3849L256.625 69.9474C256.325 70.0749 256.069 70.2878 255.89 70.5596C255.71 70.8314 255.614 71.1501 255.614 71.4759C255.614 71.8018 255.71 72.1205 255.89 72.3923C256.069 72.6641 256.325 72.8769 256.625 73.0044L265.735 77.567C266.043 77.7185 266.381 77.7971 266.723 77.7968H302.82C303.317 77.8256 303.806 77.6572 304.18 77.3281C304.554 76.999 304.784 76.5356 304.819 76.0384V66.9133C304.784 66.4162 304.554 65.9528 304.18 65.6237C303.806 65.2946 303.317 65.1262 302.82 65.155Z" fill="#3F3D56"/>
<path d="M304.819 66.9134V76.0385C304.784 76.5357 304.554 76.999 304.18 77.3282C303.806 77.6573 303.317 77.8257 302.82 77.7969H295.628V65.155H302.82C303.317 65.1262 303.806 65.2946 304.18 65.6238C304.554 65.9529 304.784 66.4162 304.819 66.9134Z" fill="#6C63FF"/>
<path d="M507.069 141.604L503.258 139.999L500.643 120.886H465.826L462.993 139.921L459.583 141.627C459.42 141.708 459.289 141.842 459.212 142.008C459.134 142.173 459.115 142.36 459.157 142.537C459.199 142.715 459.299 142.873 459.442 142.986C459.585 143.099 459.763 143.161 459.945 143.161H506.755C506.942 143.161 507.123 143.096 507.267 142.978C507.412 142.859 507.511 142.695 507.548 142.511C507.585 142.328 507.558 142.138 507.47 141.972C507.383 141.807 507.241 141.677 507.069 141.604Z" fill="#E6E6E6"/>
<path d="M568.94 123.43H397.912C397.014 123.427 396.154 123.069 395.521 122.434C394.887 121.799 394.531 120.938 394.531 120.04V95.9138H572.321V120.04C572.321 120.938 571.965 121.799 571.331 122.434C570.697 123.069 569.838 123.427 568.94 123.43Z" fill="#CCCCCC"/>
<path d="M572.5 107.316H394.375V4.08611C394.376 3.00276 394.806 1.96415 395.572 1.19813C396.338 0.432102 397.376 0.00121219 398.459 0H568.415C569.498 0.00121217 570.536 0.432103 571.302 1.19813C572.068 1.96415 572.498 3.00276 572.5 4.08611L572.5 107.316Z" fill="#3F3D56"/>
<path d="M561.861 99.8238H405.013C404.178 99.8229 403.378 99.4907 402.788 98.9001C402.197 98.3096 401.865 97.5089 401.864 96.6737V10.6425C401.865 9.80728 402.197 9.00654 402.788 8.41595C403.378 7.82535 404.178 7.49315 405.013 7.49219H561.861C562.696 7.49315 563.496 7.82536 564.087 8.41595C564.677 9.00654 565.009 9.80728 565.01 10.6425V96.6737C565.009 97.5089 564.677 98.3096 564.087 98.9001C563.496 99.4907 562.696 99.8229 561.861 99.8238Z" fill="white"/>
<path d="M520.55 130.18C521.562 129.244 522.768 128.542 524.081 128.123C525.394 127.704 526.784 127.577 528.151 127.753C529.518 127.929 530.83 128.403 531.995 129.141C533.159 129.879 534.148 130.864 534.891 132.025L556.106 128.252L561.543 140.59L531.508 145.498C529.474 146.617 527.101 146.951 524.838 146.437C522.574 145.923 520.578 144.596 519.227 142.708C517.877 140.82 517.265 138.501 517.509 136.192C517.753 133.884 518.835 131.744 520.55 130.18Z" fill="#FFB6B6"/>
<path d="M540.192 145.934L562.309 145.658L565.109 145.62L610.108 145.053C610.108 145.053 622.328 133.391 632.969 121.384L631.477 110.593C630.022 100.002 624.771 90.3011 616.7 83.2949C601.46 93.4817 592.622 113.645 592.622 113.645L564.721 120.321L561.93 120.989L544.593 125.133L540.192 145.934Z" fill="#6C63FF"/>
<path d="M653.414 212.261H612.129C612.129 214.03 566.999 215.467 566.999 215.467C566.003 216.216 565.096 217.077 564.294 218.031C561.885 220.906 560.568 224.539 560.576 228.29V230.855C560.578 235.105 562.266 239.182 565.271 242.187C568.276 245.193 572.35 246.882 576.6 246.884H653.414C657.663 246.88 661.736 245.19 664.741 242.185C667.745 239.18 669.434 235.105 669.438 230.855V228.29C669.432 224.041 667.742 219.967 664.738 216.962C661.735 213.957 657.662 212.267 653.414 212.261Z" fill="#E4E4E4"/>
<path d="M623.392 246.247H606.728V342.47H623.392V246.247Z" fill="#E4E4E4"/>
<path d="M559.298 341.884C559.298 343.685 584.55 342.581 615.701 342.581C646.851 342.581 672.103 343.685 672.103 341.884C672.103 340.083 646.851 325.799 615.701 325.799C584.55 325.799 559.298 340.083 559.298 341.884Z" fill="#E4E4E4"/>
<path d="M548.104 330.89L535.702 330.889L529.802 283.034L548.106 283.035L548.104 330.89Z" fill="#FFB6B6"/>
<path d="M551.267 342.916L511.276 342.914V342.408C511.277 338.279 512.917 334.318 515.836 331.398C518.755 328.478 522.714 326.838 526.842 326.838H526.843L551.267 326.839L551.267 342.916Z" fill="#2F2E41"/>
<path d="M511.448 330.89L499.046 330.889L493.146 283.034L511.45 283.035L511.448 330.89Z" fill="#FFB6B6"/>
<path d="M514.611 342.916L474.62 342.914V342.408C474.621 338.279 476.261 334.318 479.18 331.398C482.099 328.478 486.058 326.838 490.186 326.838H490.187L514.611 326.839L514.611 342.916Z" fill="#2F2E41"/>
<path d="M622.545 55.3838C634.454 55.3838 644.109 45.7257 644.109 33.8118C644.109 21.8979 634.454 12.2397 622.545 12.2397C610.635 12.2397 600.98 21.8979 600.98 33.8118C600.98 45.7257 610.635 55.3838 622.545 55.3838Z" fill="#FFB6B6"/>
<path d="M657.446 181.615C657.446 181.615 664.682 219.889 637.152 224.762C609.622 229.636 569.882 233.062 569.882 233.062L552.037 316.354L528.061 314.213C528.061 314.213 531.25 213.948 539.091 206.103C546.933 198.259 596.494 174.771 596.494 174.771L657.446 181.615Z" fill="#2F2E41"/>
<path d="M603.679 165.574L591.639 177.657C591.639 177.657 504.702 191.665 501.348 211.752C496.284 242.079 490.303 308.026 490.303 308.026L516.442 306.065L526.692 231.101L568.513 221.584L616.095 195.644L603.679 165.574Z" fill="#2F2E41"/>
<path d="M643.296 20.9348C641.167 16.9171 638.462 8.90972 634.166 7.42466C631.78 6.63321 629.313 6.10767 626.812 5.85758L619.509 8.66744L623.484 5.57505C622.71 5.52893 621.937 5.49123 621.164 5.46194L616.236 7.35776L618.757 5.39634C614.163 5.34918 609.422 5.827 605.862 8.62451C602.828 11.0094 599.821 20.0438 599.335 23.8733C598.815 27.5368 598.997 31.2657 599.871 34.8612L601.119 36.0481C601.555 35.0469 601.884 34.0018 602.098 32.9307C602.545 30.9294 603.405 29.0433 604.621 27.3925C605.837 25.7418 607.384 24.3626 609.163 23.343L609.23 23.3047C611.323 22.1263 613.863 22.1807 616.263 22.2671L627.662 22.6774C630.404 22.7761 633.357 22.9497 635.495 24.6706C636.854 25.9401 637.923 27.4884 638.627 29.2095C639.69 31.3545 641.766 39.4451 641.766 39.4451C641.766 39.4451 642.94 37.9179 643.503 39.0546C644.406 36.0889 644.955 33.0268 645.138 29.9321C645.318 26.8236 644.683 23.7221 643.296 20.9348Z" fill="#2F2E41"/>
<path d="M718.718 43.2852C717.342 43.3759 716.003 43.7671 714.795 44.4314C713.587 45.0956 712.539 46.0168 711.725 47.13C710.912 48.2432 710.352 49.5213 710.085 50.8744C709.819 52.2274 709.852 53.6224 710.183 54.9612L692.842 67.7573L698.045 80.1956L722.28 61.781C724.492 61.0761 726.368 59.5842 727.553 57.588C728.738 55.5918 729.15 53.23 728.711 50.9501C728.272 48.6703 727.012 46.6308 725.17 45.2181C723.328 43.8054 721.033 43.1177 718.718 43.2852Z" fill="#FFB6B6"/>
<path d="M715.927 69.4084L672.455 117.706C672.455 117.706 651.666 111.049 635.588 103.831L628.365 81.6385C626.688 76.4901 625.972 71.077 626.254 65.6694C648.542 59.7364 674.466 81.8124 674.466 81.8124L707.006 56.3142L715.927 69.4084Z" fill="#6C63FF"/>
<path d="M614.49 185.182C606.735 182.502 598.715 179.731 590.064 178.69L589.693 178.646L589.795 178.286C598.75 146.833 596.515 126.714 592.127 96.4909C591.194 89.9719 592.393 83.3258 595.545 77.5445C598.698 71.7632 603.635 67.1568 609.619 64.4129L609.672 64.3889L634.379 62.8184L634.435 62.8149L652.403 68.1015C654.988 68.8676 657.25 70.4604 658.844 72.6357C660.437 74.8111 661.274 77.4491 661.225 80.1455C661.03 90.0848 661.443 101.182 661.88 112.93C662.861 139.286 663.875 166.54 658.121 184.224L658.091 184.316L658.014 184.376C652.725 188.686 646.099 191.014 639.278 190.96C631.213 190.96 622.982 188.116 614.49 185.182Z" fill="#6C63FF"/>
<path d="M737.289 345H246.711C246.522 345 246.342 344.895 246.208 344.707C246.075 344.52 246 344.265 246 344C246 343.735 246.075 343.48 246.208 343.293C246.342 343.105 246.522 343 246.711 343H737.289C737.478 343 737.658 343.105 737.792 343.293C737.925 343.48 738 343.735 738 344C738 344.265 737.925 344.52 737.792 344.707C737.658 344.895 737.478 345 737.289 345Z" fill="#CCCCCC"/>
</g>
<defs>
<clipPath id="clip0_71:91">
<rect width="795" height="345" fill="white"/>
</clipPath>
</defs>
</svg>
