<svg width="510" height="339" viewBox="0 0 510 339" fill="none" xmlns="http://www.w3.org/2000/svg">
<path d="M488.583 139.848H30.9533C29.0097 139.848 27.1465 140.621 25.7729 141.998C24.3984 143.374 23.6262 145.241 23.6262 147.188C23.6262 149.134 24.3984 151.001 25.7729 152.378C27.1465 153.755 29.0097 154.528 30.9533 154.528H43.916V330.13C43.916 332.076 44.6872 333.944 46.0618 335.32C47.4354 336.697 49.2995 337.47 51.2421 337.47C53.1858 337.47 55.0489 336.697 56.4225 335.32C57.7971 333.944 58.5692 332.076 58.5692 330.13L58.6801 154.528H425.975L459.84 330.13C459.84 332.076 460.613 333.944 461.986 335.32C463.361 336.697 465.224 337.47 467.167 337.47C469.11 337.47 470.973 336.697 472.348 335.32C473.722 333.944 474.494 332.076 474.494 330.13L476.626 154.528H488.583C490.526 154.528 492.39 153.755 493.764 152.378C495.138 151.001 495.91 149.134 495.91 147.188C495.91 145.241 495.138 143.374 493.764 141.998C492.39 140.621 490.526 139.848 488.583 139.848Z" fill="#CCCCCC"/>
<path d="M110.277 107.14V138.225H32.5445C30.5077 138.295 28.4768 137.963 26.5675 137.248C24.6582 136.532 22.9079 135.448 21.4175 134.054C19.9272 132.661 18.7243 130.988 17.8796 129.129C17.0348 127.271 16.5629 125.264 16.4922 123.223C16.4216 121.182 16.7522 119.147 17.4665 117.234C18.1808 115.321 19.264 113.568 20.6542 112.074C22.0445 110.581 23.7153 109.377 25.5697 108.53C27.425 107.683 29.4285 107.211 31.4653 107.14C31.8254 107.128 32.1845 107.128 32.5445 107.14H110.277Z" fill="#F2F2F2"/>
<path d="M112.186 137.985C112.186 138.302 112.061 138.606 111.837 138.831C111.613 139.055 111.31 139.181 110.993 139.181H31.1603C26.8267 139.178 22.6716 137.45 19.6075 134.38C16.5444 131.308 14.8235 127.144 14.8235 122.801C14.8235 118.459 16.5444 114.295 19.6075 111.224C22.6716 108.153 26.8267 106.425 31.1603 106.422H110.993C111.15 106.422 111.306 106.453 111.451 106.513C111.595 106.573 111.728 106.661 111.839 106.772C111.95 106.883 112.038 107.015 112.099 107.16C112.159 107.306 112.19 107.461 112.19 107.618C112.19 107.775 112.159 107.932 112.099 108.076C112.038 108.222 111.95 108.354 111.839 108.465C111.728 108.576 111.595 108.664 111.451 108.724C111.306 108.784 111.15 108.814 110.993 108.814H31.1603C27.4614 108.82 23.9156 110.296 21.3019 112.918C18.6882 115.541 17.2204 119.095 17.2204 122.801C17.2204 126.508 18.6882 130.063 21.3019 132.686C23.9156 135.308 27.4614 136.784 31.1603 136.79H110.993C111.31 136.79 111.613 136.916 111.837 137.14C112.061 137.364 112.186 137.668 112.186 137.985Z" fill="#6C63FF"/>
<path d="M110.277 114.314H26.7453C26.6825 114.314 26.6217 114.289 26.5765 114.245C26.5314 114.201 26.5059 114.14 26.5059 114.077C26.5049 114.013 26.5294 113.952 26.5736 113.907C26.6177 113.862 26.6776 113.836 26.7414 113.835H110.277C110.341 113.836 110.401 113.862 110.445 113.906C110.489 113.951 110.513 114.011 110.513 114.074C110.513 114.138 110.489 114.198 110.445 114.243C110.401 114.287 110.341 114.313 110.277 114.314Z" fill="#CCCCCC"/>
<path d="M110.277 120.052H26.7453C26.6825 120.052 26.6217 120.028 26.5765 119.983C26.5314 119.939 26.5059 119.878 26.5059 119.815C26.5049 119.752 26.5294 119.691 26.5736 119.645C26.6177 119.6 26.6776 119.575 26.7414 119.574H110.277C110.341 119.575 110.401 119.6 110.445 119.644C110.489 119.69 110.513 119.75 110.513 119.813C110.513 119.876 110.489 119.936 110.445 119.982C110.401 120.026 110.341 120.051 110.277 120.052Z" fill="#CCCCCC"/>
<path d="M110.277 125.791H26.7453C26.6825 125.792 26.6217 125.766 26.5765 125.722C26.5314 125.678 26.5059 125.617 26.5059 125.554C26.5049 125.491 26.5294 125.43 26.5736 125.385C26.6177 125.34 26.6776 125.313 26.7414 125.313H110.277C110.341 125.313 110.401 125.339 110.445 125.384C110.489 125.428 110.513 125.489 110.513 125.552C110.513 125.615 110.489 125.675 110.445 125.72C110.401 125.765 110.341 125.791 110.277 125.791Z" fill="#CCCCCC"/>
<path d="M110.277 131.529H26.7453C26.6825 131.53 26.6217 131.504 26.5765 131.46C26.5314 131.416 26.5059 131.356 26.5059 131.292C26.5049 131.229 26.5294 131.168 26.5736 131.123C26.6177 131.078 26.6776 131.051 26.7414 131.051H110.277C110.341 131.051 110.401 131.077 110.445 131.122C110.489 131.166 110.513 131.227 110.513 131.29C110.513 131.353 110.489 131.414 110.445 131.458C110.401 131.503 110.341 131.529 110.277 131.529Z" fill="#CCCCCC"/>
<path d="M95.6237 74.3913V105.475H17.8925C13.7777 105.618 9.77464 104.119 6.76453 101.306C3.75442 98.4926 1.98249 94.596 1.83924 90.4739C1.696 86.352 3.19321 82.3418 6.00121 79.3257C8.80921 76.3096 12.6984 74.5346 16.8123 74.3913C17.1724 74.3787 17.5325 74.3787 17.8925 74.3913H95.6237Z" fill="#F2F2F2"/>
<path d="M97.5328 105.236C97.5328 105.554 97.4073 105.857 97.1836 106.081C96.9599 106.305 96.6567 106.432 96.3398 106.432H16.507C12.1714 106.432 8.01339 104.706 4.94735 101.634C1.88132 98.5623 0.159424 94.3968 0.159424 90.0527C0.159424 85.7088 1.88132 81.5428 4.94735 78.4711C8.01339 75.3995 12.1714 73.6738 16.507 73.6738H96.3398C96.4968 73.6738 96.6518 73.7048 96.797 73.7648C96.9412 73.825 97.0727 73.913 97.1836 74.024C97.2944 74.1351 97.3827 74.2668 97.4426 74.4119C97.5024 74.5569 97.5328 74.7125 97.5328 74.8694C97.5328 75.0264 97.5024 75.1818 97.4426 75.3269C97.3827 75.4719 97.2944 75.6038 97.1836 75.7148C97.0727 75.8257 96.9412 75.9139 96.797 75.9739C96.6518 76.034 96.4968 76.0649 96.3398 76.0649H16.507C12.8043 76.0649 9.25354 77.5386 6.6349 80.1619C4.01626 82.7851 2.54554 86.343 2.54554 90.0527C2.54554 93.7626 4.01626 97.3204 6.6349 99.9439C9.25354 102.566 12.8043 104.04 16.507 104.04H96.3398C96.6567 104.04 96.9599 104.167 97.1836 104.391C97.4073 104.615 97.5328 104.919 97.5328 105.236Z" fill="#3F3D56"/>
<path d="M95.6236 81.5646H12.092C12.0292 81.565 11.9683 81.5402 11.9232 81.4958C11.8781 81.4514 11.8526 81.3909 11.8526 81.3278C11.8516 81.2645 11.8761 81.2036 11.9203 81.1584C11.9644 81.1131 12.0243 81.0872 12.088 81.0864H95.6236C95.6864 81.087 95.7472 81.1125 95.7914 81.1573C95.8355 81.2021 95.8601 81.2625 95.8601 81.3255C95.8601 81.3885 95.8355 81.449 95.7914 81.4937C95.7472 81.5385 95.6864 81.564 95.6236 81.5646Z" fill="#CCCCCC"/>
<path d="M95.6236 87.3034H12.092C12.0292 87.3037 11.9683 87.2791 11.9232 87.2347C11.8781 87.1902 11.8526 87.1298 11.8526 87.0665C11.8516 87.0032 11.8761 86.9423 11.9203 86.8971C11.9644 86.8519 12.0243 86.8261 12.088 86.8252H95.6236C95.6864 86.8259 95.7472 86.8513 95.7914 86.8961C95.8355 86.9408 95.8601 87.0013 95.8601 87.0644C95.8601 87.1273 95.8355 87.1878 95.7914 87.2326C95.7472 87.2773 95.6864 87.3028 95.6236 87.3034Z" fill="#CCCCCC"/>
<path d="M95.6236 93.0417H12.092C12.0292 93.042 11.9683 93.0172 11.9232 92.9729C11.8781 92.9285 11.8526 92.8681 11.8526 92.8048C11.8516 92.7415 11.8761 92.6806 11.9203 92.6354C11.9644 92.5902 12.0243 92.5643 12.088 92.5635H95.6236C95.6864 92.5641 95.7472 92.5896 95.7914 92.6343C95.8355 92.6791 95.8601 92.7396 95.8601 92.8025C95.8601 92.8656 95.8355 92.9261 95.7914 92.9708C95.7472 93.0156 95.6864 93.041 95.6236 93.0417Z" fill="#CCCCCC"/>
<path d="M95.6236 98.7808H12.092C12.0292 98.7808 11.9683 98.7562 11.9232 98.712C11.8781 98.6668 11.8526 98.6069 11.8526 98.544C11.8516 98.4801 11.8761 98.4192 11.9203 98.374C11.9644 98.3288 12.0243 98.3032 12.088 98.3022H95.6236C95.6864 98.3032 95.7472 98.3288 95.7914 98.373C95.8355 98.4182 95.8601 98.4781 95.8601 98.541C95.8601 98.6039 95.8355 98.6648 95.7914 98.71C95.7472 98.7542 95.6864 98.7798 95.6236 98.7808Z" fill="#CCCCCC"/>
<path d="M186.049 249.841V222.739C186.049 221.54 185.575 220.391 184.729 219.544C183.883 218.697 182.737 218.222 181.541 218.221H78.9688C77.7728 218.222 76.6258 218.697 75.781 219.544C74.9353 220.391 74.4604 221.54 74.4604 222.739V249.841H186.049Z" fill="#CCCCCC"/>
<path d="M186.049 260.004H74.4604V295.011H186.049V260.004Z" fill="#CCCCCC"/>
<path d="M74.4604 305.175V332.278C74.4604 333.476 74.9353 334.625 75.781 335.472C76.6258 336.319 77.7728 336.795 78.9688 336.795H181.541C182.737 336.795 183.883 336.319 184.729 335.472C185.575 334.625 186.049 333.476 186.049 332.278V305.175H74.4604Z" fill="#CCCCCC"/>
<path d="M129.692 238.548C131.56 238.548 133.073 237.031 133.073 235.16C133.073 233.289 131.56 231.773 129.692 231.773C127.824 231.773 126.311 233.289 126.311 235.16C126.311 237.031 127.824 238.548 129.692 238.548Z" fill="white"/>
<path d="M129.692 283.719C131.56 283.719 133.073 282.202 133.073 280.331C133.073 278.461 131.56 276.943 129.692 276.943C127.824 276.943 126.311 278.461 126.311 280.331C126.311 282.202 127.824 283.719 129.692 283.719Z" fill="white"/>
<path d="M129.873 327.934C131.74 327.934 133.254 326.417 133.254 324.546C133.254 322.675 131.74 321.158 129.873 321.158C128.005 321.158 126.491 322.675 126.491 324.546C126.491 326.417 128.005 327.934 129.873 327.934Z" fill="white"/>
<path d="M173.398 187.319V218.403H95.6666C91.5537 218.543 87.5537 217.043 84.5455 214.229C81.5374 211.416 79.7674 207.522 79.6242 203.402C79.4809 199.282 80.9762 195.273 83.7822 192.257C86.5873 189.242 90.4735 187.465 94.5854 187.319C94.9455 187.306 95.3056 187.306 95.6666 187.319H173.398Z" fill="#F2F2F2"/>
<path d="M175.308 218.164C175.307 218.481 175.182 218.785 174.958 219.009C174.734 219.233 174.431 219.36 174.114 219.36H94.2825C89.9469 219.361 85.7898 217.636 82.7228 214.567C79.6567 211.498 77.9319 207.334 77.9299 202.99C77.927 198.647 79.6459 194.481 82.709 191.407C85.7721 188.335 89.9272 186.605 94.2628 186.602H174.114C174.271 186.602 174.427 186.632 174.572 186.692C174.718 186.752 174.849 186.839 174.96 186.95C175.072 187.061 175.16 187.194 175.22 187.339C175.28 187.484 175.311 187.64 175.311 187.797C175.311 187.955 175.28 188.11 175.22 188.255C175.16 188.401 175.072 188.532 174.96 188.643C174.849 188.754 174.718 188.843 174.572 188.903C174.427 188.963 174.271 188.993 174.114 188.992H94.2825C90.5826 188.997 87.0358 190.473 84.4211 193.096C81.8074 195.719 80.3386 199.274 80.3386 202.981C80.3386 206.687 81.8074 210.242 84.4211 212.865C87.0358 215.487 90.5826 216.963 94.2825 216.968H174.114C174.431 216.968 174.734 217.095 174.958 217.319C175.182 217.543 175.307 217.847 175.308 218.164Z" fill="#3F3D56"/>
<path d="M173.399 194.492H89.8664C89.8036 194.493 89.7428 194.467 89.6976 194.423C89.6535 194.379 89.627 194.318 89.627 194.255C89.626 194.192 89.6505 194.131 89.6947 194.086C89.7388 194.041 89.7997 194.014 89.8625 194.014H173.399C173.462 194.014 173.522 194.04 173.566 194.085C173.61 194.129 173.634 194.19 173.634 194.253C173.634 194.316 173.61 194.376 173.566 194.421C173.522 194.466 173.462 194.492 173.399 194.492Z" fill="#CCCCCC"/>
<path d="M173.399 200.231H89.8664C89.8036 200.231 89.7428 200.206 89.6976 200.162C89.6535 200.117 89.627 200.057 89.627 199.993C89.626 199.93 89.6505 199.869 89.6947 199.824C89.7388 199.779 89.7997 199.753 89.8625 199.752H173.399C173.462 199.752 173.522 199.778 173.566 199.823C173.61 199.868 173.634 199.928 173.634 199.991C173.634 200.054 173.61 200.115 173.566 200.159C173.522 200.204 173.462 200.23 173.399 200.231Z" fill="#CCCCCC"/>
<path d="M173.399 205.97H89.8664C89.8036 205.97 89.7428 205.945 89.6976 205.901C89.6535 205.856 89.627 205.796 89.627 205.733C89.626 205.669 89.6505 205.608 89.6947 205.563C89.7388 205.518 89.7997 205.492 89.8625 205.491H173.399C173.462 205.492 173.522 205.517 173.566 205.562C173.61 205.607 173.634 205.667 173.634 205.73C173.634 205.793 173.61 205.854 173.566 205.898C173.522 205.943 173.462 205.969 173.399 205.97Z" fill="#CCCCCC"/>
<path d="M173.399 211.708H89.8664C89.8036 211.708 89.7428 211.683 89.6976 211.639C89.6535 211.594 89.627 211.534 89.627 211.471C89.626 211.407 89.6505 211.346 89.6947 211.301C89.7388 211.256 89.7997 211.23 89.8625 211.229H173.399C173.462 211.23 173.522 211.256 173.566 211.3C173.61 211.345 173.634 211.405 173.634 211.468C173.634 211.531 173.61 211.592 173.566 211.637C173.522 211.681 173.462 211.707 173.399 211.708Z" fill="#CCCCCC"/>
<path d="M82.1066 64.0217H46.6906C46.3551 64.0214 46.0235 64.0987 45.7213 64.2476L36.7832 68.7307C36.4888 68.856 36.2377 69.0652 36.0621 69.3323C35.8854 69.5994 35.7913 69.9125 35.7913 70.2326C35.7913 70.5529 35.8854 70.866 36.0621 71.1331C36.2377 71.4002 36.4888 71.6093 36.7832 71.7346L45.7213 76.2178C46.0235 76.3667 46.3551 76.4439 46.6906 76.4436H82.1066C82.5942 76.4719 83.074 76.3064 83.4409 75.9831C83.8078 75.6597 84.0335 75.2043 84.0679 74.7158V65.7494C84.0335 65.2609 83.8078 64.8056 83.4409 64.4822C83.074 64.1588 82.5942 63.9934 82.1066 64.0217Z" fill="#3F3D56"/>
<path d="M84.0679 65.7495V74.7159C84.0335 75.2044 83.8079 75.6597 83.4409 75.9832C83.074 76.3065 82.5942 76.472 82.1066 76.4437H75.0503V64.0217H82.1066C82.5942 63.9934 83.074 64.1588 83.4409 64.4823C83.8079 64.8057 84.0335 65.2609 84.0679 65.7495Z" fill="#6C63FF"/>
<path d="M282.502 139.141L278.763 137.564L276.197 118.784H242.037L239.257 137.488L235.912 139.164C235.752 139.244 235.623 139.375 235.548 139.538C235.471 139.7 235.453 139.884 235.494 140.058C235.535 140.233 235.633 140.388 235.773 140.499C235.914 140.61 236.088 140.671 236.267 140.671H282.194C282.377 140.671 282.555 140.607 282.696 140.491C282.838 140.375 282.935 140.213 282.972 140.033C283.008 139.853 282.982 139.666 282.895 139.503C282.81 139.341 282.67 139.213 282.502 139.141Z" fill="#E6E6E6"/>
<path d="M343.205 121.283H175.404C174.523 121.28 173.68 120.929 173.058 120.305C172.436 119.681 172.087 118.835 172.087 117.952V94.2456H346.523V117.952C346.523 118.835 346.173 119.681 345.551 120.305C344.929 120.929 344.086 121.28 343.205 121.283Z" fill="#CCCCCC"/>
<path d="M346.698 105.45H171.934V4.01505C171.935 2.95054 172.357 1.92999 173.108 1.17729C173.86 0.424587 174.878 0.00119111 175.941 0H342.69C343.753 0.00119109 344.771 0.424588 345.523 1.17729C346.274 1.92999 346.696 2.95054 346.698 4.01505V105.45Z" fill="#3F3D56"/>
<path d="M336.26 98.0877H182.371C181.552 98.0868 180.767 97.7603 180.188 97.18C179.608 96.5998 179.283 95.813 179.282 94.9923V10.4573C179.283 9.63664 179.608 8.84983 180.188 8.26951C180.767 7.68918 181.552 7.36276 182.371 7.36182H336.26C337.079 7.36276 337.864 7.68919 338.444 8.26951C339.023 8.84983 339.349 9.63664 339.349 10.4573V94.9923C339.349 95.813 339.023 96.5998 338.444 97.18C337.864 97.7603 337.079 98.0868 336.26 98.0877Z" fill="white"/>
<path d="M295.729 127.916C296.721 126.996 297.905 126.306 299.193 125.895C300.481 125.483 301.845 125.358 303.186 125.531C304.527 125.704 305.815 126.17 306.958 126.895C308.1 127.62 309.07 128.588 309.799 129.729L330.614 126.021L335.948 138.145L306.48 142.968C304.484 144.067 302.156 144.395 299.936 143.89C297.714 143.385 295.756 142.081 294.43 140.226C293.106 138.371 292.505 136.092 292.745 133.823C292.984 131.556 294.046 129.453 295.729 127.916Z" fill="#FFB6B6"/>
<path d="M315 143.396L336.699 143.125L339.447 143.087L383.597 142.53C383.597 142.53 395.586 131.071 406.026 119.273L404.562 108.67C403.135 98.2627 397.983 88.7305 390.064 81.8462C375.112 91.8558 366.441 111.668 366.441 111.668L339.066 118.228L336.328 118.885L319.318 122.957L315 143.396Z" fill="#6C63FF"/>
<path d="M426.085 208.569H385.579C385.579 210.308 341.301 211.72 341.301 211.72C340.324 212.456 339.434 213.302 338.647 214.239C336.283 217.064 334.991 220.634 334.999 224.32V226.84C335.001 231.016 336.657 235.022 339.605 237.975C342.554 240.929 346.551 242.588 350.721 242.59H426.085C430.254 242.586 434.25 240.926 437.199 237.973C440.146 235.02 441.803 231.016 441.807 226.84V224.32C441.801 220.144 440.143 216.141 437.196 213.189C434.249 210.236 430.253 208.575 426.085 208.569Z" fill="#E4E4E4"/>
<path d="M396.63 241.964H380.281V336.514H396.63V241.964Z" fill="#E4E4E4"/>
<path d="M333.745 335.938C333.745 337.708 358.521 336.623 389.084 336.623C419.646 336.623 444.422 337.708 444.422 335.938C444.422 334.168 419.646 320.133 389.084 320.133C358.521 320.133 333.745 334.168 333.745 335.938Z" fill="#E4E4E4"/>
<path d="M322.763 325.136L310.595 325.135L304.806 278.112L322.765 278.113L322.763 325.136Z" fill="#FFB6B6"/>
<path d="M325.866 336.952L286.629 336.95V336.453C286.63 332.396 288.239 328.504 291.103 325.635C293.967 322.765 297.852 321.154 301.902 321.154H301.903L325.866 321.155V336.952Z" fill="#2F2E41"/>
<path d="M286.798 325.136L274.63 325.135L268.841 278.112L286.8 278.113L286.798 325.136Z" fill="#FFB6B6"/>
<path d="M289.901 336.952L250.665 336.95V336.453C250.666 332.396 252.275 328.504 255.139 325.635C258.003 322.765 261.887 321.154 265.937 321.154H265.938L289.901 321.155V336.952Z" fill="#2F2E41"/>
<path d="M395.799 54.4206C407.483 54.4206 416.956 44.9305 416.956 33.2238C416.956 21.5171 407.483 12.0269 395.799 12.0269C384.114 12.0269 374.641 21.5171 374.641 33.2238C374.641 44.9305 384.114 54.4206 395.799 54.4206Z" fill="#FFB6B6"/>
<path d="M430.041 178.456C430.041 178.456 437.141 216.065 410.13 220.853C383.12 225.642 344.13 229.009 344.13 229.009L326.621 310.852L303.098 308.748C303.098 308.748 306.227 210.227 313.92 202.519C321.614 194.811 370.239 171.731 370.239 171.731L430.041 178.456Z" fill="#2F2E41"/>
<path d="M377.289 162.694L365.476 174.567C365.476 174.567 280.18 188.332 276.889 208.069C271.92 237.869 266.052 302.669 266.052 302.669L291.698 300.742L301.755 227.082L342.787 217.73L389.471 192.241L377.289 162.694Z" fill="#2F2E41"/>
<path d="M416.158 20.5705C414.07 16.6227 411.416 8.75457 407.201 7.29534C404.86 6.51765 402.439 6.00125 399.985 5.75551L392.82 8.51651L396.72 5.4779C395.961 5.43258 395.202 5.39553 394.444 5.36675L389.609 7.2296L392.082 5.30229C387.575 5.25595 382.924 5.72547 379.431 8.47432C376.454 10.8177 373.504 19.695 373.027 23.4579C372.517 27.0577 372.695 30.7218 373.553 34.2547L374.777 35.421C375.205 34.4372 375.528 33.4103 375.738 32.3578C376.176 30.3913 377.02 28.538 378.213 26.9159C379.406 25.2939 380.924 23.9387 382.669 22.9368L382.735 22.8992C384.789 21.7413 387.281 21.7948 389.635 21.8797L400.819 22.2828C403.51 22.3798 406.407 22.5504 408.505 24.2414C409.838 25.4888 410.887 27.0101 411.578 28.7013C412.62 30.809 414.657 38.7589 414.657 38.7589C414.657 38.7589 415.809 37.2583 416.361 38.3752C417.247 35.4611 417.786 32.4522 417.966 29.4113C418.142 26.3569 417.519 23.3093 416.158 20.5705Z" fill="#2F2E41"/>
<path d="M490.157 42.5326C488.807 42.6217 487.494 43.0061 486.308 43.6589C485.123 44.3115 484.095 45.2167 483.296 46.3105C482.499 47.4044 481.949 48.6602 481.687 49.9898C481.426 51.3193 481.459 52.69 481.783 54.0055L464.77 66.5791L469.874 78.8011L493.652 60.7067C495.822 60.0141 497.663 58.5481 498.826 56.5867C499.988 54.6252 500.392 52.3044 499.962 50.0642C499.531 47.824 498.295 45.82 496.488 44.4319C494.68 43.0438 492.429 42.368 490.157 42.5326Z" fill="#FFB6B6"/>
<path d="M487.419 68.2014L444.767 115.659C444.767 115.659 424.371 109.118 408.596 102.025L401.509 80.2188C399.864 75.16 399.161 69.841 399.438 64.5275C421.306 58.6976 446.74 80.3897 446.74 80.3897L478.666 55.335L487.419 68.2014Z" fill="#6C63FF"/>
<path d="M387.896 181.962C380.287 179.328 372.419 176.605 363.931 175.583L363.567 175.539L363.667 175.186C372.453 144.28 370.26 124.51 365.955 94.813C365.04 88.4074 366.216 81.8768 369.308 76.1961C372.402 70.5153 377.246 65.989 383.117 63.2929L383.169 63.2693L407.41 61.7261L407.465 61.7227L425.094 66.9173C427.63 67.6701 429.849 69.2352 431.413 71.3727C432.976 73.5102 433.797 76.1023 433.749 78.7519C433.558 88.5183 433.963 99.4225 434.392 110.966C435.354 136.864 436.349 163.644 430.704 181.02L430.674 181.111L430.599 181.17C425.41 185.405 418.909 187.692 412.216 187.639C404.304 187.639 396.228 184.845 387.896 181.962Z" fill="#6C63FF"/>
<path d="M508.378 339H27.0562C26.8708 339 26.6942 338.897 26.5627 338.712C26.4322 338.528 26.3586 338.278 26.3586 338.017C26.3586 337.757 26.4322 337.506 26.5627 337.323C26.6942 337.138 26.8708 337.035 27.0562 337.035H508.378C508.563 337.035 508.74 337.138 508.872 337.323C509.002 337.506 509.076 337.757 509.076 338.017C509.076 338.278 509.002 338.528 508.872 338.712C508.74 338.897 508.563 339 508.378 339Z" fill="#CCCCCC"/>
</svg>
