<svg xmlns="http://www.w3.org/2000/svg" fill="none" viewBox="0 0 649.67 568.22">
<g clip-path="url(#clip0_129_187)">
<path d="M372.874 134.317V49.2402C372.874 36.1809 367.686 23.6565 358.452 14.4222C349.218 5.18791 336.693 9.01739e-05 323.634 9.75945e-10H143.387C136.921 -4.07089e-05 130.518 1.27356 124.544 3.74808C118.57 6.2226 113.141 9.84958 108.569 14.4219C103.997 18.9943 100.369 24.4225 97.8949 30.3966C95.4203 36.3707 94.1466 42.7737 94.1466 49.24V105.742H90.9795V125.651H94.1466V146.886H90.9795V177.413H94.1466V190.685H90.9795V221.212H94.1466V515.979C94.1465 522.445 95.4202 528.848 97.8947 534.822C100.369 540.796 103.996 546.224 108.569 550.797C113.141 555.369 118.569 558.996 124.543 561.471C130.517 563.945 136.92 565.219 143.387 565.219H323.633C330.1 565.219 336.503 563.945 342.477 561.471C348.451 558.996 353.879 555.369 358.452 550.797C363.024 546.224 366.651 540.796 369.126 534.822C371.6 528.848 372.874 522.445 372.874 515.979V194.876H375.979V134.317H372.874Z" fill="#3F3D56"/>
<path d="M325.62 12.8106H302.092C303.174 15.4633 303.587 18.3414 303.295 21.1913C303.002 24.0412 302.014 26.7756 300.416 29.1534C298.818 31.5312 296.66 33.4795 294.131 34.8267C291.603 36.174 288.782 36.8787 285.917 36.8789H182.656C179.791 36.8787 176.97 36.174 174.442 34.8267C171.913 33.4795 169.755 31.5312 168.157 29.1534C166.559 26.7756 165.57 24.0412 165.278 21.1913C164.986 18.3414 165.399 15.4633 166.481 12.8105H144.505C134.753 12.8105 125.4 16.6847 118.504 23.5808C111.608 30.4769 107.733 39.83 107.733 49.5826V515.636C107.733 520.465 108.685 525.247 110.532 529.708C112.38 534.17 115.089 538.223 118.504 541.638C121.918 545.052 125.972 547.761 130.433 549.609C134.895 551.457 139.676 552.408 144.505 552.408H325.62C335.373 552.408 344.726 548.534 351.622 541.638C358.518 534.742 362.392 525.389 362.392 515.636V515.636V49.5826C362.392 44.7536 361.441 39.9719 359.593 35.5105C357.745 31.0491 355.037 26.9954 351.622 23.5808C348.207 20.1662 344.154 17.4576 339.692 15.6096C335.231 13.7617 330.449 12.8106 325.62 12.8106V12.8106Z" fill="white"/>
<path d="M330.176 175.002H139.95C138.625 175 137.354 174.473 136.416 173.536C135.479 172.598 134.952 171.327 134.95 170.002V92.8163C134.952 91.4907 135.479 90.2198 136.416 89.2824C137.354 88.3451 138.625 87.8178 139.95 87.8163H330.176C331.502 87.8178 332.773 88.3451 333.71 89.2824C334.648 90.2198 335.175 91.4907 335.176 92.8163V170.002C335.175 171.327 334.648 172.598 333.71 173.536C332.773 174.473 331.502 175 330.176 175.002V175.002Z" fill="#6C63FF"/>
<path d="M312.062 211.528H158.062C156.604 211.528 155.205 210.949 154.173 209.917C153.142 208.886 152.562 207.487 152.562 206.028C152.562 204.57 153.142 203.171 154.173 202.139C155.205 201.108 156.604 200.528 158.062 200.528H312.062C313.521 200.528 314.92 201.108 315.952 202.139C316.983 203.171 317.562 204.57 317.562 206.028C317.562 207.487 316.983 208.886 315.952 209.917C314.92 210.949 313.521 211.528 312.062 211.528Z" fill="#6C63FF"/>
<path d="M312.062 239.528H158.062C156.471 239.528 154.945 238.896 153.82 237.771C152.695 236.646 152.062 235.119 152.062 233.528C152.062 231.937 152.695 230.411 153.82 229.286C154.945 228.16 156.471 227.528 158.062 227.528H312.062C313.654 227.528 315.18 228.16 316.305 229.286C317.43 230.411 318.062 231.937 318.062 233.528C318.062 235.119 317.43 236.646 316.305 237.771C315.18 238.896 313.654 239.528 312.062 239.528V239.528Z" fill="#E4E4E4"/>
<path d="M312.062 267.028H158.062C156.471 267.028 154.945 266.396 153.82 265.271C152.695 264.146 152.062 262.619 152.062 261.028C152.062 259.437 152.695 257.911 153.82 256.786C154.945 255.66 156.471 255.028 158.062 255.028H312.062C313.654 255.028 315.18 255.66 316.305 256.786C317.43 257.911 318.062 259.437 318.062 261.028C318.062 262.619 317.43 264.146 316.305 265.271C315.18 266.396 313.654 267.028 312.062 267.028V267.028Z" fill="#E4E4E4"/>
<path d="M330.176 406.002H139.95C138.625 406 137.354 405.473 136.416 404.536C135.479 403.598 134.952 402.327 134.95 401.002V323.816C134.952 322.491 135.479 321.22 136.416 320.282C137.354 319.345 138.625 318.818 139.95 318.816H330.176C331.502 318.818 332.773 319.345 333.71 320.282C334.648 321.22 335.175 322.491 335.176 323.816V401.002C335.175 402.327 334.648 403.598 333.71 404.536C332.773 405.473 331.502 406 330.176 406.002V406.002Z" fill="#E4E4E4"/>
<path d="M312.062 443.028H158.062C156.471 443.028 154.945 442.396 153.82 441.271C152.695 440.146 152.062 438.619 152.062 437.028C152.062 435.437 152.695 433.911 153.82 432.786C154.945 431.66 156.471 431.028 158.062 431.028H312.062C313.654 431.028 315.18 431.66 316.305 432.786C317.43 433.911 318.062 435.437 318.062 437.028C318.062 438.619 317.43 440.146 316.305 441.271C315.18 442.396 313.654 443.028 312.062 443.028Z" fill="#E4E4E4"/>
<path d="M312.062 470.528H158.062C156.471 470.528 154.945 469.896 153.82 468.771C152.695 467.646 152.062 466.119 152.062 464.528C152.062 462.937 152.695 461.411 153.82 460.286C154.945 459.16 156.471 458.528 158.062 458.528H312.062C313.654 458.528 315.18 459.16 316.305 460.286C317.43 461.411 318.062 462.937 318.062 464.528C318.062 466.119 317.43 467.646 316.305 468.771C315.18 469.896 313.654 470.528 312.062 470.528Z" fill="#E4E4E4"/>
<path d="M312.062 498.028H158.062C156.471 498.028 154.945 497.396 153.82 496.271C152.695 495.146 152.062 493.619 152.062 492.028C152.062 490.437 152.695 488.911 153.82 487.786C154.945 486.66 156.471 486.028 158.062 486.028H312.062C313.654 486.028 315.18 486.66 316.305 487.786C317.43 488.911 318.062 490.437 318.062 492.028C318.062 493.619 317.43 495.146 316.305 496.271C315.18 497.396 313.654 498.028 312.062 498.028Z" fill="#E4E4E4"/>
<path d="M484.904 146.337C482.969 132.148 480.543 116.913 470.535 106.67C467.359 103.42 463.558 100.846 459.361 99.1046C455.164 97.3631 450.658 96.4895 446.114 96.5365C441.57 96.5836 437.083 97.5503 432.923 99.3783C428.763 101.206 425.016 103.858 421.909 107.173C414.623 114.945 411.406 125.858 411.112 136.506C410.817 147.155 413.189 157.685 415.82 168.008C429.742 168.286 443.562 165.565 456.341 160.032C459.473 158.503 462.721 157.228 466.057 156.217C469.433 155.358 471.839 157.52 474.979 159.028L476.703 155.727C478.114 158.354 482.484 157.575 484.069 155.05C485.654 152.525 485.307 149.291 484.904 146.337Z" fill="#2F2E41"/>
<path d="M612.434 535.007L602.208 541.77L571.257 505.545L586.349 495.564L612.434 535.007Z" fill="#9E616A"/>
<path d="M621.597 543.194L588.624 565L588.348 564.583C586.098 561.18 585.291 557.021 586.106 553.023C586.921 549.024 589.291 545.513 592.694 543.262L592.695 543.262L612.834 529.943L621.597 543.194Z" fill="#2F2E41"/>
<path d="M480.429 553.116H468.169L462.337 505.828L480.431 505.829L480.429 553.116Z" fill="#9E616A"/>
<path d="M483.555 565L444.024 564.999V564.499C444.025 560.418 445.646 556.505 448.531 553.619C451.417 550.734 455.33 549.113 459.411 549.113H459.412L483.556 549.114L483.555 565Z" fill="#2F2E41"/>
<path d="M393.202 228.147L346.913 195.082C347.117 193.349 346.813 191.595 346.038 190.033C345.263 188.47 344.051 187.166 342.549 186.28C341.047 185.394 339.319 184.963 337.577 185.041C335.834 185.118 334.152 185.701 332.735 186.717C331.317 187.733 330.225 189.139 329.593 190.765C328.96 192.39 328.813 194.164 329.17 195.871C329.527 197.579 330.373 199.145 331.604 200.381C332.835 201.616 334.399 202.467 336.105 202.83C341.891 207.688 384.153 249.718 390.204 247.501C396.345 245.251 423.197 241.178 423.197 241.178L423.945 215.682L393.202 228.147Z" fill="#9E616A"/>
<path d="M429.57 288.308L430.007 346.486C430.007 346.486 440.025 432.687 443.719 447.249C447.414 461.811 462.411 529.195 462.411 529.195L486.79 525.262L471.09 437.164L475.835 364.147L503.2 437.325L572.685 509.958L590.295 495.749L529.814 406.867L511.341 334.056C511.341 334.056 513.639 296.396 492.941 281.893L429.57 288.308Z" fill="#2F2E41"/>
<path d="M443.574 160.376C458.332 160.376 470.295 148.413 470.295 133.655C470.295 118.898 458.332 106.935 443.574 106.935C428.817 106.935 416.854 118.898 416.854 133.655C416.854 148.413 428.817 160.376 443.574 160.376Z" fill="#9E616A"/>
<path d="M450.527 297.696L440.596 319.864L469.415 332.775L479.347 310.607L450.527 297.696Z" fill="#2F2E41"/>
<path d="M486.371 185.069C483.223 178.802 481.693 171.06 474.979 169.028C470.446 167.656 452.111 169.712 447.979 172.028C441.107 175.88 447.335 183.099 443.28 189.855C438.873 197.198 434.465 204.542 430.058 211.886C427.028 216.934 423.966 222.054 422.328 227.71C420.69 233.365 420.611 239.713 423.402 244.897C425.9 249.538 430.425 252.829 432.937 257.462C435.549 262.28 430.86 283.793 428.428 288.705L429.595 289.244C445.76 290.193 461.979 289.647 478.043 287.614C482.031 287.109 486.171 286.449 489.456 284.135C494.296 280.726 496.21 274.54 497.405 268.742C503.16 240.401 499.277 210.949 486.371 185.069V185.069Z" fill="#E4E4E4"/>
<path d="M431.686 245.761C438.926 238.647 446.202 231.49 452.161 223.273C458.121 215.057 462.755 205.652 464.049 195.585C464.602 192.373 464.382 189.075 463.407 185.965C462.297 182.916 459.838 180.21 456.669 179.514C451.597 178.4 446.986 182.448 443.366 186.172C432.695 197.15 422.023 208.129 411.352 219.108C418.149 228.056 424.947 237.004 431.745 245.951L431.686 245.761Z" fill="#E4E4E4"/>
<path d="M510.59 251.241C508.34 245.1 504.267 218.248 504.267 218.248L478.772 217.501L491.236 248.244L457.223 295.86C457.223 295.86 457.286 295.964 457.4 296.151C455.612 295.864 453.778 296.124 452.14 296.896C450.502 297.668 449.135 298.917 448.218 300.479C447.301 302.041 446.876 303.843 447.001 305.65C447.125 307.457 447.792 309.184 448.914 310.606C450.036 312.028 451.561 313.077 453.29 313.618C455.018 314.159 456.87 314.165 458.602 313.636C460.334 313.107 461.867 312.067 462.998 310.653C464.13 309.239 464.808 307.516 464.945 305.71C465.07 305.782 465.216 305.808 465.359 305.784C465.501 305.759 465.63 305.686 465.724 305.576C469.509 300.827 512.84 257.383 510.59 251.241Z" fill="#9E616A"/>
<path d="M513.182 234.284C510.842 224.407 508.484 214.477 504.539 205.125C500.594 195.773 494.946 186.939 487.002 180.621C484.54 178.485 481.605 176.966 478.439 176.191C475.255 175.563 471.668 176.265 469.432 178.617C465.854 182.38 466.93 188.421 468.242 193.445C472.112 208.258 475.982 223.072 479.851 237.885C491.026 236.701 502.2 235.517 513.375 234.332L513.182 234.284Z" fill="#E4E4E4"/>
<path d="M476.979 135.734C476.143 129.27 475.271 122.752 473.308 116.665C471.345 110.578 468.182 104.878 463.644 101.43C456.459 95.9706 447.156 97.0235 439.1 100.164C432.87 102.592 426.788 106.283 422.395 112.217C418.001 118.151 415.534 126.618 417.168 134.377C425.761 131.986 434.355 129.594 442.948 127.203L442.007 127.986C447.584 131.128 451.819 137.629 453.084 144.99C454.356 152.326 452.729 159.869 448.547 166.028C454.408 163.579 460.269 161.13 466.129 158.682C469.747 157.17 473.618 155.428 475.763 151.551C478.25 147.056 477.672 141.098 476.979 135.734Z" fill="#2F2E41"/>
<path d="M350.819 177.624L333.63 203.422C333.219 204.042 332.661 204.549 332.006 204.899C331.35 205.248 330.617 205.429 329.874 205.424C328.99 205.424 328.126 205.162 327.39 204.672C326.654 204.182 326.08 203.485 325.739 202.669C325.619 202.394 325.528 202.106 325.47 201.811C325.238 200.641 325.479 199.426 326.14 198.432L343.329 172.634C343.657 172.142 344.078 171.72 344.569 171.391C345.06 171.062 345.611 170.833 346.19 170.717C346.77 170.601 347.366 170.6 347.946 170.715C348.526 170.829 349.077 171.057 349.569 171.384C350.061 171.712 350.483 172.133 350.812 172.624C351.141 173.115 351.37 173.666 351.486 174.246C351.602 174.825 351.603 175.422 351.489 176.001C351.374 176.581 351.147 177.133 350.819 177.624V177.624Z" fill="#6C63FF"/>
<path d="M335.016 201.342L331.537 206.533L325.38 211.96C324.975 212.317 324.463 212.531 323.924 212.567C323.385 212.604 322.849 212.461 322.399 212.162C321.95 211.862 321.612 211.422 321.438 210.911C321.264 210.399 321.264 209.844 321.438 209.333L324.133 201.445L327.526 196.351L335.016 201.342Z" fill="#3F3D56"/>
<path d="M351.578 164.096L342.964 171.688C342.682 171.937 342.461 172.247 342.318 172.595C342.175 172.942 342.113 173.318 342.139 173.693C342.164 174.068 342.275 174.433 342.464 174.758C342.652 175.083 342.913 175.361 343.226 175.569L344.856 176.655L340.142 183.729C340.07 183.838 340.019 183.961 339.994 184.09C339.968 184.218 339.968 184.351 339.994 184.48C340.02 184.609 340.071 184.731 340.144 184.84C340.217 184.949 340.311 185.043 340.42 185.116C340.529 185.188 340.652 185.239 340.781 185.264C340.91 185.29 341.042 185.29 341.171 185.264C341.3 185.238 341.422 185.187 341.531 185.114C341.64 185.041 341.734 184.947 341.807 184.838L346.52 177.764L348.15 178.85C348.69 179.21 349.352 179.341 349.989 179.215C350.626 179.088 351.186 178.714 351.549 178.175C351.668 177.996 351.763 177.802 351.832 177.597L355.522 166.724C355.696 166.212 355.696 165.657 355.521 165.146C355.347 164.634 355.009 164.194 354.56 163.895C354.11 163.595 353.574 163.452 353.035 163.489C352.496 163.525 351.984 163.738 351.578 164.096L351.578 164.096Z" fill="#3F3D56"/>
<path d="M241.812 21.5282H214.812C214.282 21.5282 213.773 21.3175 213.398 20.9424C213.023 20.5673 212.812 20.0586 212.812 19.5282C212.812 18.9978 213.023 18.4891 213.398 18.114C213.773 17.7389 214.282 17.5282 214.812 17.5282H241.812C242.343 17.5282 242.852 17.7389 243.227 18.114C243.602 18.4891 243.812 18.9978 243.812 19.5282C243.812 20.0586 243.602 20.5673 243.227 20.9424C242.852 21.3175 242.343 21.5282 241.812 21.5282Z" fill="white"/>
<path d="M255.312 21.5282C256.417 21.5282 257.312 20.6328 257.312 19.5282C257.312 18.4236 256.417 17.5282 255.312 17.5282C254.208 17.5282 253.312 18.4236 253.312 19.5282C253.312 20.6328 254.208 21.5282 255.312 21.5282Z" fill="white"/>
</g>
<defs>
<clipPath id="clip0_129_187">
<rect width="649.675" height="568.22" fill="white"/>
</clipPath>
</defs>
</svg>